<svg width="256" height="256" viewBox="0 0 256 256" fill="none" xmlns="http://www.w3.org/2000/svg">
  <circle cx="128" cy="128" r="120" stroke="#E2E8F0" stroke-width="2"/>
  
  <g id="Logo_Icon">
    <path d="M185 105C185 82.3563 166.42 64 143.5 64C120.58 64 102 82.3563 102 105C102 115.823 106.216 125.66 113.111 133L113 152L131.391 143.243C135.267 144.385 139.311 145 143.5 145C166.42 145 185 126.644 185 105Z" fill="#50B498" fill-opacity="0.8"/>
    
    <path d="M154 95C154 72.3563 135.42 54 112.5 54C89.5802 54 71 72.3563 71 95C71 105.823 75.2163 115.66 82.1107 123L82 142L100.391 133.243C104.267 134.385 108.311 135 112.5 135C135.42 135 154 116.644 154 95Z" fill="#1E40AF"/>
    
    <path d="M112 78C102.611 78 95 85.6112 95 95C95 104.389 102.611 112 112 112C116.5 112 120.5 110.2 123.5 107.2" stroke="white" stroke-width="6" stroke-linecap="round"/>
    
    <line x1="115" y1="95" x2="155" y2="95" stroke="#F87171" stroke-width="4"/>
    <circle cx="125" cy="95" r="5" fill="#F87171"/>
    <circle cx="155" cy="95" r="5" fill="#F87171"/>
  </g>

  <text x="128" y="200" text-anchor="middle" font-family="Arial, sans-serif" font-weight="bold" font-size="32" fill="#1E40AF">ChatFlow</text>
</svg>